<?xml version="1.0" standalone="no"?>
<!DOCTYPE svg PUBLIC "-//W3C//DTD SVG 20010904//EN"
 "http://www.w3.org/TR/2001/REC-SVG-20010904/DTD/svg10.dtd">
<svg version="1.0" xmlns="http://www.w3.org/2000/svg"
 width="960.000000pt" height="960.000000pt" viewBox="0 0 960.000000 960.000000"
 preserveAspectRatio="xMidYMid meet">
<metadata>
Created by potrace 1.14, written by Peter Selinger 2001-2017
</metadata>
<g transform="translate(0.000000,960.000000) scale(0.100000,-0.100000)"
fill="#000000" stroke="none">
<path d="M1769 8336 c-2 -2 -29 -7 -59 -10 -54 -6 -90 -11 -140 -20 -14 -3
-70 -17 -125 -31 -55 -14 -106 -26 -112 -27 -7 -1 -13 -5 -13 -10 0 -4 -3 -7
-7 -7 -15 3 -73 -14 -73 -21 0 -3 -6 -7 -14 -7 -24 0 -306 -143 -306 -155 0
-6 -3 -9 -6 -5 -9 8 -196 -127 -262 -190 -7 -7 -18 -13 -23 -13 -5 0 -9 -3 -9
-7 0 -5 -42 -51 -93 -104 -85 -88 -188 -222 -244 -317 -44 -74 -103 -187 -103
-197 0 -6 -4 -15 -9 -20 -25 -26 -119 -321 -136 -425 -3 -19 -8 -48 -11 -63
-3 -15 -8 -47 -12 -70 -3 -23 -7 -728 -8 -1567 -3 -1669 -4 -1622 56 -1856 91
-353 256 -642 514 -900 90 -90 286 -247 326 -262 8 -3 17 -9 20 -13 8 -12 231
-126 282 -144 24 -9 68 -25 98 -36 50 -18 169 -52 231 -65 70 -15 138 -26 171
-27 20 -2 40 -6 44 -9 3 -4 907 -7 2007 -8 1100 0 2003 -3 2006 -5 2 -3 5 -72
6 -153 1 -160 9 -189 61 -251 15 -19 51 -44 79 -57 l50 -24 1732 0 c964 0
1734 4 1737 9 3 5 18 11 33 14 37 8 96 64 119 113 18 38 19 105 19 2075 0
1711 -2 2039 -14 2052 -7 10 -10 17 -6 17 4 0 -7 17 -23 38 -41 52 -121 94
-177 94 -25 0 -48 4 -51 10 -4 6 -8 211 -9 457 -2 245 -6 462 -9 481 -3 19 -8
53 -11 75 -3 22 -7 51 -10 65 -3 14 -8 38 -11 54 -2 16 -7 32 -9 36 -2 4 -6
20 -9 36 -3 16 -16 63 -30 104 -59 187 -145 361 -255 519 -46 67 -51 74 -114
150 -40 47 -200 205 -259 254 -72 60 -259 177 -358 224 -146 70 -164 78 -260
108 -110 35 -109 34 -345 81 -39 8 -5858 18 -5866 10z m1946 -2044 c105 -52
193 -99 196 -104 3 -5 9 -9 13 -8 6 1 290 -140 504 -250 39 -20 72 -35 72 -32
0 2 6 -1 14 -7 8 -7 107 -59 221 -116 113 -57 212 -108 219 -114 9 -8 12 -156
11 -643 l0 -633 -60 -32 c-33 -17 -63 -30 -66 -27 -4 2 -9 1 -11 -4 -1 -4 -46
-27 -98 -51 -52 -24 -98 -49 -102 -55 -4 -6 -8 -8 -8 -3 0 4 -11 0 -24 -9 -14
-8 -27 -15 -30 -15 -6 0 -215 -98 -361 -170 -45 -21 -86 -39 -93 -39 -7 0 -12
-5 -12 -10 0 -6 -3 -9 -7 -8 -5 1 -55 -21 -113 -49 -167 -80 -319 -152 -398
-190 -40 -19 -86 -35 -102 -35 -35 -1 -90 37 -90 62 0 10 -4 21 -10 25 -6 3
-6 15 0 29 5 13 7 26 5 28 -6 6 -7 53 -6 498 0 228 0 422 0 430 0 8 0 80 0
160 0 80 0 152 0 160 -1 14 -1 699 0 745 0 11 0 127 0 259 l0 238 26 33 c26
35 53 45 95 37 14 -3 111 -48 215 -100z"/>
</g>
</svg>
